# Alias OBJ Model File
# Exported from SketchUp, (c) 2000-2012 Trimble Navigation Limited
# File units = inches

mtllib Estrella.mtl

g Mesh1 Component_1_1 Model

usemtl Metal_Aluminum_Anodized
v 138.247 182.564 -11.145
vt 2.31791 2.3
vn -0.179572 -0.178891 0.967343
v 121.983 165.715 -18.705
vt 1.98961 1.98395
vn -0.707913 -0.7063 -9.96996e-016
v 188.858 49.8844 -18.705
vt 3.17875 -0.188771
vn -8.54332e-015 -1 6.97414e-016
v 188.858 94.9031 -11.145
vt 3.21785 0.655678
vn -1.77044e-015 -0.135407 0.99079
f 1/1/1 2/2/2 3/3/3 4/4/4 

v 6.15192 232.59 -18.705
vt -0.0411602 3.1869
vn -0.999375 0.0353535 -1.37716e-015
vt 2.07478 1.89942
vt 2.39486 2.22379
v 50.586 233.175 -11.145
vt 0.793512 3.19815
vn -0.138482 0.00837231 0.99033
f 5/5/5 2/6/2 1/7/1 6/8/6 

vt -2.1571 2.03471
vn -0.707913 -0.7063 -1.17827e-015
vt -0.0411602 3.32219
v 50.586 233.175 -26.265
vt -0.875833 3.33345
vn -0.138482 0.00837231 -0.99033
v 138.247 182.564 -26.265
vt -2.47718 2.35908
vn -0.179572 -0.178891 -0.967343
f 2/9/7 5/10/5 7/11/8 8/12/9 

v 138.247 283.786 -26.265
vt -2.47699 4.16198
vn -0.188994 0.189774 -0.963466
vt -0.877697 3.18425
vt -0.0430248 3.17296
v 121.983 299.465 -18.705
vt -2.15625 4.46488
vn -0.706277 0.707936 -1.14091e-015
f 9/13/10 7/14/8 5/15/5 10/16/11 

usemtl Metal_Embossed
v 104.992 235.038 -32.25
vt -25.3294 44.6185
vn -0.0728009 0.00713147 -0.997321
vt -11.6462 44.1435
vt -33.413 57.0498
v 158.161 265.735 -32.25
vt -38.5316 52.4465
vn -0.102742 0.103431 -0.989316
f 11/17/12 7/18/8 9/19/10 12/20/13 

v 158.161 204.341 -32.25
vt -38.4985 38.5056
vn -0.094468 -0.0938893 -0.991091
vt -33.3921 32.975
vt -11.5941 45.8286
vt -25.2774 46.3017
f 13/21/14 8/22/9 7/23/8 11/24/12 

v 188.858 151.172 -32.25
vt -46.1476 25.0165
vn -1.03023e-016 -0.0702108 -0.997532
v 188.858 94.9031 -26.265
vt -45.8765 10.8725
vn 1.14222e-016 -0.135407 -0.99079
vt -33.4331 32.9073
vt -38.6003 38.3812
f 14/25/15 15/26/16 8/27/9 13/28/14 

v 239.469 182.564 -26.265
vt -56.4079 34.6292
vn 0.179572 -0.178891 -0.967343
vt -43.9646 12.5944
vn 1.07083e-016 -0.135407 -0.99079
vt -43.6935 26.7384
v 219.555 204.341 -32.25
vt -51.2407 40.1031
vn 0.094468 -0.0938893 -0.991091
f 16/29/17 15/30/18 14/31/15 17/32/19 

usemtl Metal_Aluminum_Anodized
vt -3.17875 0.188771
vn -8.54332e-015 -1 8.71768e-016
vt -3.13965 1.03322
vt -4.0396 2.67754
v 255.733 165.715 -18.705
vt -4.3679 2.36149
vn 0.707913 -0.7063 1.81272e-015
f 3/33/20 15/34/16 16/35/17 18/36/21 

vt -2.12972 2.06064
vn -0.707913 -0.7063 -1.08763e-015
vt -2.45802 2.37668
vt -3.35796 0.732361
vt -3.31886 -0.112088
f 2/37/22 8/38/9 15/39/16 3/40/3 

vt -4.51806 2.33829
vn 0.707913 -0.7063 1.72208e-015
vt -4.19798 2.66266
v 327.13 233.175 -26.265
vt -5.79933 3.63702
vn 0.138482 0.00837231 -0.99033
v 371.564 232.59 -18.705
vt -6.634 3.62576
vn 0.999375 0.0353535 2.58217e-015
f 18/41/23 16/42/17 19/43/24 20/44/25 

usemtl Metal_Embossed
vt -79.2702 47.4904
vt -57.4722 34.6367
vt -52.3658 40.1674
v 272.724 235.038 -32.25
vt -65.5869 47.9635
vn 0.0728009 0.00713147 -0.997321
f 19/45/24 16/46/17 17/47/19 21/48/26 

vt -53.3507 38.6141
v 195.846 208.958 -32.25
vt -47.4235 39.7683
vn -0.231095 0.862457 -0.450293
vt -66.6429 46.2883
f 17/49/19 22/50/27 21/51/26

v 188.858 208.038 -32.25
vt -45.6765 39.5383
vn -1.9872e-015 0.892881 -0.450293
f 22/50/27 17/49/19 23/52/28

vt -38.0022 38.6141
f 17/49/19 13/53/14 23/52/28

vt -45.6765 25.3219
f 13/53/14 17/49/19 14/54/15

v 181.87 208.958 -32.25
vt -43.9294 39.7683
vn 0.231095 0.862457 -0.450293
f 23/52/28 13/53/14 24/55/29

vt -24.71 46.2883
f 24/55/29 13/53/14 11/56/12

v 175.358 211.655 -32.25
vt -42.3015 40.4427
vn 0.44644 0.773258 -0.450293
f 24/55/29 11/56/12 25/57/30

v 169.766 215.946 -32.25
vt -40.9035 41.5154
vn 0.631362 0.631362 -0.450293
f 25/57/30 11/56/12 26/58/31

v 165.475 221.538 -32.25
vt -39.8308 42.9133
vn 0.773258 0.44644 -0.450293
f 26/58/31 11/56/12 27/59/32

v 162.778 228.05 -32.25
vt -39.1565 44.5413
vn 0.862457 0.231095 -0.450293
f 27/59/32 11/56/12 28/60/33

v 161.858 235.038 -32.25
vt -38.9265 46.2883
vn 0.892881 1.1811e-017 -0.450293
f 28/60/33 11/56/12 29/61/34

v 162.778 242.026 -32.25
vt -39.1565 48.0354
vn 0.862457 -0.231095 -0.450293
f 29/61/34 11/56/12 30/62/35

vt -38.0022 53.9626
f 30/62/35 11/56/12 12/63/13

v 165.475 248.538 -32.25
vt -39.8308 49.6633
vn 0.773258 -0.44644 -0.450293
f 30/62/35 12/63/13 31/64/36

v 169.766 254.13 -32.25
vt -40.9035 51.0613
vn 0.631362 -0.631362 -0.450293
f 31/64/36 12/63/13 32/65/37

v 175.358 258.42 -32.25
vt -42.3015 52.134
vn 0.44644 -0.773258 -0.450293
f 32/65/37 12/63/13 33/66/38

v 181.87 261.118 -32.25
vt -43.9294 52.8083
vn 0.231095 -0.862457 -0.450293
f 33/66/38 12/63/13 34/67/39

v 188.858 262.038 -32.25
vt -45.6765 53.0383
vn -1.76224e-015 -0.892881 -0.450293
f 34/67/39 12/63/13 35/68/40

v 219.555 265.735 -32.25
vt -53.3507 53.9626
vn 0.102742 0.103431 -0.989316
f 36/69/41 35/68/40 12/63/13

v 195.846 261.118 -32.25
vt -47.4235 52.8083
vn -0.231095 -0.862457 -0.450293
f 36/69/41 37/70/42 35/68/40

v 202.358 258.42 -32.25
vt -49.0515 52.134
vn -0.44644 -0.773258 -0.450293
f 36/69/41 38/71/43 37/70/42

v 207.95 254.13 -32.25
vt -50.4494 51.0613
vn -0.631362 -0.631362 -0.450293
f 36/69/41 39/72/44 38/71/43

v 212.241 248.538 -32.25
vt -51.5221 49.6633
vn -0.773258 -0.44644 -0.450293
f 36/69/41 40/73/45 39/72/44

v 214.938 242.026 -32.25
vt -52.1965 48.0354
vn -0.862457 -0.231095 -0.450293
f 36/69/41 41/74/46 40/73/45

f 21/51/26 41/74/46 36/69/41

v 215.858 235.038 -32.25
vt -52.4265 46.2883
vn -0.892881 -5.75601e-016 -0.450293
f 21/51/26 42/75/47 41/74/46

v 214.938 228.05 -32.25
vt -52.1965 44.5413
vn -0.862457 0.231095 -0.450293
f 21/51/26 43/76/48 42/75/47

v 212.241 221.538 -32.25
vt -51.5221 42.9133
vn -0.773258 0.44644 -0.450293
f 21/51/26 44/77/49 43/76/48

v 207.95 215.946 -32.25
vt -50.4494 41.5154
vn -0.631362 0.631362 -0.450293
f 21/51/26 45/78/50 44/77/49

v 202.358 211.655 -32.25
vt -49.0515 40.4427
vn -0.44644 0.773258 -0.450293
f 21/51/26 46/79/51 45/78/50

f 21/51/26 22/50/27 46/79/51

usemtl Metal_Aluminum_Anodized
vt -0.501667 4.37276
v 195.846 208.958 -5.16
vt -3.19664e-014 4.37276
vn -0.231095 0.862457 0.450293
v 202.358 211.655 -5.16
vt -3.30423e-014 4.50329
vn -0.44644 0.773258 0.450293
vt -0.501667 4.50329
f 22/80/27 47/81/52 48/82/53 46/83/51 

vt -5.95936e-014 3.8673
vt -0.501667 3.8673
vt -0.501667 3.73678
v 188.858 208.038 -5.16
vt -5.74213e-014 3.73678
vn -1.9872e-015 0.892881 0.450293
f 47/84/52 22/85/27 23/86/28 49/87/54 

vt 0.501667 -2.84169
v 181.87 208.958 -5.16
vt 5.69427e-014 -2.84169
vn 0.231095 0.862457 0.450293
vt 5.91824e-014 -2.97222
vt 0.501667 -2.97222
f 24/88/29 50/89/55 49/90/54 23/91/28 

vt 0.501667 -1.7485
v 175.358 211.655 -5.16
vt 3.51308e-014 -1.7485
vn 0.44644 0.773258 0.450293
vt 3.64588e-014 -1.87902
vt 0.501667 -1.87902
f 25/92/30 51/93/56 50/94/55 24/95/29 

vt 0.501667 -0.531702
v 169.766 215.946 -5.16
vt 2.28036e-014 -0.531702
vn 0.631362 0.631362 0.450293
vt 2.36296e-014 -0.662228
vt 0.501667 -0.662228
f 26/96/31 52/97/57 51/98/56 25/99/30 

vt 0.501667 0.725777
v 165.475 221.538 -5.16
vt 2.99782e-014 0.725777
vn 0.773258 0.44644 0.450293
vt 3.07705e-014 0.59525
vt 0.501667 0.59525
f 27/100/32 53/101/58 52/102/57 26/103/31 

vt 0.501667 1.93824
v 162.778 228.05 -5.16
vt 4.16406e-014 1.93824
vn 0.862457 0.231095 0.450293
vt 4.23481e-014 1.80772
vt 0.501667 1.80772
f 28/104/33 54/105/59 53/106/58 27/107/32 

vt 0.501667 3.02307
vn 0.892881 1.24981e-017 -0.450293
v 161.858 235.038 -5.16
vt 3.22412e-014 3.02307
vn 0.892881 4.99925e-017 0.450293
vt 3.25111e-014 2.89254
vt 0.501667 2.89254
f 29/108/60 55/109/61 54/110/59 28/111/33 

vt 0.501667 3.90632
v 162.778 242.026 -5.16
vt 3.23779e-014 3.90632
vn 0.862457 -0.231095 0.450293
vt 3.22396e-014 3.7758
vt 0.501667 3.7758
f 30/112/35 56/113/62 55/114/61 29/115/60 

vt 0.501667 4.52782
v 165.475 248.538 -5.16
vt 4.15804e-014 4.52782
vn 0.773258 -0.44644 0.450293
vt 4.08836e-014 4.39729
vt 0.501667 4.39729
f 31/116/36 57/117/63 56/118/62 30/119/35 

vt 0.501667 4.8452
v 169.766 254.13 -5.16
vt 3.06389e-014 4.8452
vn 0.631362 -0.631362 0.450293
vt 2.98466e-014 4.71467
vt 0.501667 4.71467
f 32/120/37 58/121/64 57/122/63 31/123/36 

vt 0.501667 4.83683
v 175.358 258.42 -5.16
vt 2.395e-014 4.83683
vn 0.44644 -0.773258 0.450293
vt 2.31726e-014 4.7063
vt 0.501667 4.7063
f 33/124/38 59/125/65 58/126/64 32/127/37 

vt 0.501667 4.50329
v 181.87 261.118 -5.16
vt 3.28738e-014 4.50329
vn 0.231095 -0.862457 0.450293
vt 3.16714e-014 4.37276
vt 0.501667 4.37276
f 34/128/39 60/129/66 59/130/65 33/131/38 

vt 0.501667 3.8673
v 188.858 262.038 -5.16
vt 5.72239e-014 3.8673
vn -1.76224e-015 -0.892881 0.450293
vt 5.50516e-014 3.73678
vt 0.501667 3.73678
f 35/132/40 61/133/67 60/134/66 34/135/39 

vt -0.501667 -2.97222
v 195.846 261.118 -5.16
vt -5.75392e-014 -2.97222
vn -0.231095 -0.862457 0.450293
vt -5.54353e-014 -2.84169
vt -0.501667 -2.84169
f 37/136/42 62/137/68 61/138/67 35/139/40 

vt -0.501667 -1.87902
v 202.358 258.42 -5.16
vt -5.95293e-014 -1.87902
vn -0.44644 -0.773258 0.450293
vt -5.75678e-014 -1.7485
vt -0.501667 -1.7485
f 38/140/43 63/141/69 62/142/68 37/143/42 

vt -0.501667 -0.662228
v 207.95 254.13 -5.16
vt -4.88434e-014 -0.662228
vn -0.631362 -0.631362 0.450293
vt -4.75017e-014 -0.531702
vt -0.501667 -0.531702
f 39/144/44 64/145/70 63/146/69 38/147/43 

vt -0.501667 0.59525
v 212.241 248.538 -5.16
vt -3.89202e-014 0.59525
vn -0.773258 -0.44644 0.450293
vt -3.81188e-014 0.725777
vt -0.501667 0.725777
f 40/148/45 65/149/71 64/150/70 39/151/44 

vt -0.501667 1.80772
v 214.938 242.026 -5.16
vt -5.63847e-014 1.80772
vn -0.862457 -0.231095 0.450293
vt -5.56617e-014 1.93824
vt -0.501667 1.93824
f 41/152/46 66/153/72 65/154/71 40/155/45 

vt -0.501667 2.89254
vn -0.892881 -5.74914e-016 -0.450293
v 215.858 235.038 -5.16
vt -3.89155e-014 2.89254
vn -0.892881 -5.3742e-016 0.450293
vt -3.86976e-014 3.02307
vt -0.501667 3.02307
f 42/156/73 67/157/74 66/158/72 41/159/46 

vt -0.501667 3.7758
v 214.938 228.05 -5.16
vt -3.90961e-014 3.7758
vn -0.862457 0.231095 0.450293
vt -3.91837e-014 3.90632
vt -0.501667 3.90632
f 43/160/48 68/161/75 67/162/74 42/163/73 

vt -0.501667 4.39729
v 212.241 221.538 -5.16
vt -5.86182e-014 4.39729
vn -0.773258 0.44644 0.450293
vt -5.93781e-014 4.52782
vt -0.501667 4.52782
f 44/164/49 69/165/76 68/166/75 43/167/48 

vt -0.501667 4.71467
v 207.95 215.946 -5.16
vt -4.17418e-014 4.71467
vn -0.631362 0.631362 0.450293
vt -4.26174e-014 4.8452
vt -0.501667 4.8452
f 45/168/50 70/169/77 69/170/76 44/171/49 

vt -0.501667 4.7063
vt -2.15855e-014 4.7063
vt -2.21171e-014 4.83683
vt -0.501667 4.83683
f 46/172/51 48/173/53 70/174/77 45/175/50 

usemtl Metal_Embossed
vt 49.0515 40.4427
v 272.724 235.038 -5.16
vt 66.6429 46.2883
vn 0.0728009 0.00713147 0.997321
vt 50.4494 41.5154
f 48/176/53 71/177/78 70/178/77

vt 47.4235 39.7683
f 47/179/52 71/177/78 48/176/53

v 219.555 204.341 -5.16
vt 53.3507 38.6141
vn 0.094468 -0.0938893 0.991091
f 47/179/52 72/180/79 71/177/78

vt 45.6765 39.5383
f 72/180/79 47/179/52 49/181/54

v 158.161 204.341 -5.16
vt 38.0022 38.6141
vn -0.094468 -0.0938893 0.991091
f 73/182/80 72/180/79 49/181/54

v 188.858 151.172 -5.16
vt 45.6765 25.3219
vn -2.43508e-016 -0.0702108 0.997532
f 72/180/79 73/182/80 74/183/81

usemtl Metal_Seamed
vt 9.9221 2.26212
vn -1.7633e-015 -0.135407 0.99079
vt 9.98234 5.40523
vt 8.30518 8.37516
vt 7.15691 7.15874
f 4/184/82 74/185/81 73/186/80 1/187/1 

vt 10.0426 2.64478
vn -1.77757e-015 -0.135407 0.99079
v 239.469 182.564 -11.145
vt 12.8078 7.54139
vn 0.179572 -0.178891 0.967343
vt 11.6595 8.75782
vt 9.98234 5.78788
f 4/188/83 75/189/84 72/190/79 74/191/81 

usemtl Metal_Aluminum_Anodized
vt 3.27976 0.956537
vt 3.31886 0.112088
vn -8.54332e-015 -1 5.23061e-016
vt 4.50801 2.28481
vt 4.17971 2.60085
f 4/192/4 3/193/85 18/194/21 75/195/84 

vt 4.2803 2.52737
vt 4.60038 2.203
vt 6.71632 3.49047
v 327.13 233.175 -11.145
vt 5.88165 3.50173
vn 0.138482 0.00837231 0.99033
f 75/196/84 18/197/21 20/198/25 76/199/86 

vt 5.87495 2.99445
vt 6.70962 2.98315
v 255.733 299.465 -18.705
vt 4.59639 4.27508
vn 0.706277 0.707936 1.22867e-015
v 239.469 283.786 -11.145
vt 4.27566 3.97217
vn 0.188994 0.189774 0.963466
f 76/200/86 20/201/25 77/202/87 78/203/88 

vt -6.62357 2.8424
vt -5.7889 2.85369
v 239.469 283.786 -26.265
vt -4.18961 3.83142
vn 0.188994 0.189774 -0.963466
vt -4.51034 4.13432
vn 0.706277 0.707936 1.31643e-015
f 20/204/25 19/205/24 79/206/89 77/207/90 

usemtl Metal_Embossed
vt -57.3216 54.9571
vt -79.0885 42.0508
vt -65.4052 42.5258
vt -52.203 50.3539
f 79/208/89 19/209/24 21/210/26 36/211/41 

vt -56.2049 56.2848
vt -51.0309 51.7439
v 188.858 318.903 -32.25
vt -43.5018 65.1189
vn 1.59494e-016 0.0750818 -0.997177
v 188.858 371.447 -26.265
vt -43.7914 78.3365
vn 2.93316e-016 0.141274 -0.98997
f 79/212/89 36/213/41 80/214/91 81/215/92 

vt -45.6765 67.2548
f 36/69/41 12/63/13 80/216/91

vt -46.1235 67.0827
vt -38.5944 53.7077
vt -33.4205 58.2486
vt -45.8339 80.3003
f 80/217/91 12/218/13 9/219/10 81/220/92 

usemtl Metal_Aluminum_Anodized
vt -3.35381 5.97198
vn 3.0047e-016 0.141274 -0.98997
vt -2.45576 4.32663
vt -2.1271 4.62093
v 188.858 415.296 -18.705
vt -3.31375 6.79502
vn -3.66122e-015 1 -0
f 81/221/93 9/222/10 10/223/11 82/224/94 

v 138.247 283.786 -11.145
vt 2.31221 4.40498
vn -0.188994 0.189774 0.963466
v 188.858 371.447 -11.145
vt 3.21027 6.05033
vn -9.15718e-016 0.141274 0.98997
vt 3.17021 6.87336
vt 1.98356 4.69927
vn -0.706277 0.707936 -1.05315e-015
f 83/225/95 84/226/96 82/227/94 10/228/97 

usemtl Metal_Seamed
v 158.161 265.735 -5.16
vt 8.28523 12.099
vn -0.102742 0.103431 0.989316
v 188.858 318.903 -5.16
vt 9.95837 15.0712
vn -1.68876e-016 0.0750818 0.997177
vt 9.89401 18.0085
vt 7.13546 13.1081
f 85/229/98 86/230/99 84/231/96 83/232/95 

usemtl Metal_Embossed
vt 38.0022 53.9626
v 219.555 265.735 -5.16
vt 53.3507 53.9626
vn 0.102742 0.103431 0.989316
vt 45.6765 67.2548
f 85/233/98 87/234/100 86/235/99

vt 45.6765 53.0383
f 85/233/98 61/236/67 87/234/100

vt 43.9294 52.8083
f 85/233/98 60/237/66 61/236/67

vt 42.3015 52.134
f 85/233/98 59/238/65 60/237/66

vt 40.9035 51.0613
f 85/233/98 58/239/64 59/238/65

vt 39.8308 49.6633
f 85/233/98 57/240/63 58/239/64

vt 39.1565 48.0354
f 85/233/98 56/241/62 57/240/63

v 104.992 235.038 -5.16
vt 24.71 46.2883
vn -0.0728009 0.00713147 0.997321
f 88/242/101 56/241/62 85/233/98

vt 38.9265 46.2883
vn 0.892881 5.6041e-017 0.450293
f 88/242/101 55/243/102 56/241/62

vt 39.1565 44.5413
f 88/242/101 54/244/59 55/243/102

vt 39.8308 42.9133
f 88/242/101 53/245/58 54/244/59

vt 40.9035 41.5154
f 88/242/101 52/246/57 53/245/58

vt 42.3015 40.4427
f 88/242/101 51/247/56 52/246/57

vt 43.9294 39.7683
f 88/242/101 50/248/55 51/247/56

f 73/182/80 50/248/55 88/242/101

f 73/182/80 49/181/54 50/248/55

usemtl Metal_Seamed
vt 7.26501 7.06414
vt 8.39977 8.29317
vt 5.46175 10.0256
vt 2.42101 9.92051
f 1/249/1 73/250/80 88/251/101 6/252/6 

vt 2.41323 10.1045
vt 5.45395 10.21
vt 8.38778 11.9496
vt 7.25032 12.9725
f 6/253/6 88/254/101 85/255/98 83/256/95 

usemtl Metal_Aluminum_Anodized
vt 0.791647 3.325
vt 2.39094 4.30273
vt 2.0702 4.60563
vt -0.0430248 3.31371
f 6/257/6 83/258/95 10/259/97 5/260/5 

usemtl Metal_Embossed
vt 47.4235 52.8083
f 62/261/68 87/234/100 61/236/67

vt 49.0515 52.134
f 63/262/69 87/234/100 62/261/68

vt 50.4494 51.0613
f 64/263/70 87/234/100 63/262/69

vt 51.5221 49.6633
f 65/264/71 87/234/100 64/263/70

vt 52.1965 48.0354
f 66/265/72 87/234/100 65/264/71

f 66/265/72 71/177/78 87/234/100

vt 52.4265 46.2883
vn -0.892881 -5.31371e-016 0.450293
f 67/266/103 71/177/78 66/265/72

vt 52.1965 44.5413
f 68/267/75 71/177/78 67/266/103

vt 51.5221 42.9133
f 69/268/76 71/177/78 68/267/75

f 70/178/77 71/177/78 69/268/76

usemtl Metal_Seamed
vt 17.75 9.63944
vt 12.9129 12.5075
vt 11.7755 11.4846
vt 14.7093 9.745
f 76/269/86 78/270/88 87/271/100 71/272/78 

vt 11.6315 11.6626
vt 12.7813 12.6717
vt 10.0227 17.5721
vt 9.95837 14.6348
f 87/273/100 78/274/88 84/275/96 86/276/99 

usemtl Metal_Aluminum_Anodized
vt 4.17175 4.08939
vt 4.5004 4.38369
vt 3.31375 6.55778
vn -3.74637e-015 1 -0
vt 3.27369 5.73474
f 78/277/88 77/278/87 82/279/104 84/280/96 

vt -4.35685 4.30534
vt -4.0282 4.01104
vt -3.13015 5.6564
vt -3.17021 6.47943
f 77/281/90 79/282/89 81/283/93 82/284/94 

usemtl Metal_Seamed
vt 12.9271 7.43343
vt 17.7711 10.2898
vt 14.7303 10.3949
vt 11.7923 8.66246
f 75/285/84 76/286/86 71/287/78 72/288/79 

